<?xml version="1.0" encoding="UTF-8"?>
<!--
  The Bluebell Logo © 2025 by Emanuele D'Osualdo
  is licensed under CC BY-NC 4.0.
  https://creativecommons.org/licenses/by-nc/4.0/
-->
<svg width="61.518mm" height="81.428mm" version="1.1" viewBox="0 0 61.518 81.428" xmlns="http://www.w3.org/2000/svg">
 <g transform="translate(-54.72 -31.021)">
  <g transform="translate(44.076 9.9327)">
   <path d="m47.316 35.476c1.5731-17.43 23.445-17.709 23.596 0.31461 0.15154 18.049-23.612 45.314-23.91 66.708" fill="none" stroke="#005c19" stroke-width="2.5"/>
   <ellipse cx="47.988" cy="33.308" rx="4.9679" ry="4.6533" fill="#004613" stroke="#fff" stroke-linecap="round" stroke-width="1.132"/>
   <path d="m61.263 57.813c-0.4504 4.8461-0.3522 8.9834 3.0589 12.625l-8.4824 14.685-6.2291-3.8376z" fill="#fff"/>
   <g>
    <path d="m24.101 66.807c-3.9294 3.5394-7.8463 7.0844-11.753 10.644 12.281-0.16123 17.137-1.6946 20.088-2.9121-0.26367 3.6586 0.89879 10.927 5.5493 16.337 6.3704-3.6038 8.2572-10.077 9.2964-13.618 4.4383 4.2484 12.291 7.7514 17.744 9.8398-2.7157-5.3996-5.5198-10.756-8.2344-16.158-4.6054-10.554 0.97925-25.666-9.4474-28.873-14.073-3.986-12.005 15.532-23.243 24.741z" fill="#5087df" stroke="#032254" stroke-linecap="round" stroke-width="1.3"/>
    <path d="m34.638 61.07c-1.5564 0.56407-2.0772 2.5393-1.1567 3.9308 1.0124 1.9532 2.6257 3.5799 3.8583 5.4159-2.5394-0.88125-5.0173-2.0528-7.6618-2.5355-1.5349-0.11225-2.6658 1.2122-2.6801 2.5633-0.0631 1.0703 0.64506 2.2436 1.8055 2.6051 1.6019 0.61417 3.3213 0.56307 4.9766 0.64292 1.0369 0.0264 2.0714 0.0185 3.1082 0.0442-1.7012 1.3499-3.6964 2.3843-5.2388 3.9004-0.94238 1.1027-0.89414 2.9586 0.35746 4.0264 1.0726 1.023 3.0316 1.331 4.0214 0.27418 1.4356-1.5321 2.2432-3.4776 3.2926-5.254 0.15607-0.28819 0.3168-0.57381 0.47869-0.85887 0.56147 2.1864 0.56911 4.5036 1.3946 6.6736 0.53481 1.1967 1.9199 2.0717 3.2707 1.9406 1.5181-0.0506 2.9388-1.2358 2.743-2.7372-0.14863-1.4793-1.2509-2.7178-2.1066-3.9519-0.71906-0.97819-1.4862-1.9286-2.1522-2.9378 2.4987 0.86972 4.9335 2.0188 7.5267 2.5402 1.598 0.17714 2.797-1.2188 2.805-2.6169 0.0708-1.2148-0.858-2.5001-2.166-2.8382-1.8358-0.61778-3.7392-0.31082-5.5912-0.31519-0.76711 0.0241-1.5356 0.0396-2.3066 0.0236 1.7697-1.4921 4.0024-2.4944 5.5597-4.2029 0.74444-0.91844 0.79617-2.3441-0.072-3.3357-0.92878-1.2211-2.893-1.8683-4.1752-1.0321-1.3505 1.1282-2.0204 2.7635-2.8876 4.2241-0.38725 0.70891-0.7672 1.4218-1.1639 2.1256-0.56336-2.1766-0.6132-4.424-1.4138-6.5636-0.55564-1.2502-2.0179-2.201-3.432-2-0.34653 0.0335-0.67958 0.12547-0.99372 0.24885z" fill="#ffcf78" stroke="#c6652d" stroke-width="1.5"/>
    <path d="m47.557 33.309c13.307 2.4374 10.337 18.533 11.723 30.294 1.002 8.4997 8.6208 14.053 8.6208 14.053s-18.429-2.416-26.211-12.158c-10.73 6.3509-28.818 2.0781-28.818 2.0781s9.0926-2.4926 13.042-10.085c5.4654-10.507 8.3924-26.61 21.7-24.172" fill="#0763d1" stroke="#032254" stroke-linecap="round" stroke-linejoin="round" stroke-width="1.5"/>
   </g>
  </g>
 </g>
</svg>
