<?xml version="1.0" encoding="UTF-8" standalone="no"?>
<svg xmlns:rdf="http://www.w3.org/1999/02/22-rdf-syntax-ns#" xmlns="http://www.w3.org/2000/svg" height="188.17" width="177.34" version="1.1" xmlns:cc="http://creativecommons.org/ns#" xmlns:dc="http://purl.org/dc/elements/1.1/">
 <g stroke="#999" stroke-width="2">
  <line y2="117.28" x2="72.081" y1="90.295" x1="115.04"/>
  <line y2="117.28" x2="72.081" y1="142.8" x1="121.65"/>
  <line y2="153.39" x2="171.74" y1="142.8" x1="121.65"/>
  <line y2="117.28" x2="72.081" y1="57.893" x1="75.387"/>
  <line y2="5.6" x2="79.838" y1="57.893" x1="75.387"/>
  <line y2="117.28" x2="72.081" y1="85.156" x1="31.827"/>
  <line y2="117.28" x2="72.081" y1="137.49" x1="20.961"/>
  <line y2="182.57" x2="5.6" y1="137.49" x1="20.961"/>
  <line y2="117.28" x2="72.081" y1="168.14" x1="52.729"/>
  <line y2="182.57" x2="5.6" y1="168.14" x1="52.729"/>
 </g>
 <g stroke="#fff" stroke-width="1.2px" fill="#5b7a8c">
   <circle cy="117.28" cx="72.081" r="5"></circle>
   <circle cy="153.39" cx="171.74" r="5"></circle>
   <circle cy="5.6" cx="79.838" r="5"></circle>
   <circle cy="182.57" cx="5.6" r="5"></circle>
 </g>
 <rect transform="scale(-1,1)" height="12" width="18" y="136.8" x="-130.65" fill="#ff7f0e"></rect>
 <rect transform="scale(-1,1)" height="12" width="18" y="51.893" x="-84.387" fill="#ff7f0e"></rect>
 <rect transform="scale(-1,1)" height="12" width="18" y="84.295" x="-124.04" fill="#1f77b4"></rect>
 <rect transform="scale(-1,1)" height="12" width="18" y="79.156" x="-40.827" fill="#aec7e8"></rect>
 <rect transform="scale(-1,1)" height="12" width="18" y="131.49" x="-29.961" fill="#ffbb78"></rect>
 <rect transform="scale(-1,1)" height="12" width="18" y="162.14" x="-61.729" fill="#2ca02c"></rect>
</svg>
